<?xml version="1.0" standalone="no"?>
<!DOCTYPE svg PUBLIC "-//W3C//DTD SVG 20010904//EN"
 "http://www.w3.org/TR/2001/REC-SVG-20010904/DTD/svg10.dtd">
<svg version="1.0" xmlns="http://www.w3.org/2000/svg"
 width="100.000000pt" height="75.000000pt" viewBox="0 0 100.000000 75.000000"
 preserveAspectRatio="xMidYMid meet">

<g transform="translate(0.000000,75.000000) scale(0.100000,-0.100000)"
fill="#000000" stroke="none">
<path d="M614 739 c-4 -8 -7 -28 -5 -46 l2 -32 -38 11 c-37 10 -124 6 -170 -8
-18 -5 -23 -2 -23 13 0 10 7 29 16 41 14 21 14 22 -8 22 -13 0 -41 -5 -63 -11
-35 -10 -37 -13 -19 -19 26 -10 37 -38 68 -165 14 -61 20 -101 14 -104 -6 -2
-4 -7 3 -12 12 -7 12 -9 0 -9 -11 0 -9 -4 5 -15 12 -9 14 -14 6 -15 -10 0 -10
-4 2 -16 9 -8 16 -26 16 -39 0 -21 27 -61 35 -53 2 2 -2 24 -8 51 -5 26 -8 50
-4 53 11 11 27 -7 27 -30 0 -12 5 -27 11 -33 6 -6 15 -26 20 -45 6 -22 7 -8 3
45 -4 51 -2 77 5 77 6 0 11 9 11 20 0 11 -4 20 -10 20 -5 0 -7 7 -3 16 4 11 1
15 -12 12 -15 -2 -21 9 -31 57 -8 33 -18 67 -22 75 -8 13 1 14 70 9 43 -3 83
-10 88 -15 13 -13 0 -84 -15 -84 -6 0 -22 -11 -35 -25 -19 -20 -22 -31 -17
-62 4 -21 11 -39 17 -41 15 -5 12 -68 -3 -81 -8 -6 -17 -8 -20 -5 -7 8 -2 -60
7 -96 5 -16 0 -12 -14 13 -15 27 -35 45 -65 58 -37 16 -45 25 -51 54 -6 34
-34 50 -34 20 0 -23 -24 -18 -52 13 -47 51 -161 250 -155 272 3 13 1 18 -6 13
-6 -4 -8 0 -4 10 3 10 2 17 -3 17 -5 0 -7 6 -4 13 7 18 -41 20 -56 2 -9 -11
-9 -22 0 -50 7 -20 14 -34 17 -31 8 8 25 -13 57 -67 26 -46 27 -52 16 -95 -6
-26 -11 -75 -11 -109 1 -71 -1 -72 -68 -48 l-42 14 21 -29 c12 -16 26 -32 31
-36 6 -3 -4 -15 -23 -26 l-33 -21 45 -13 c72 -22 81 -20 77 21 -3 19 0 35 4
35 5 0 9 -9 9 -19 0 -11 6 -22 13 -24 8 -4 8 -6 -2 -6 -11 -1 -10 -5 5 -17 13
-11 14 -14 3 -11 -10 3 -16 -1 -16 -10 0 -9 10 -18 21 -21 20 -6 19 -6 -4 -12
-21 -6 -17 -8 25 -15 28 -4 57 -13 65 -21 8 -7 40 -24 70 -38 95 -45 228 -33
320 28 20 13 54 27 77 30 37 7 40 10 39 36 0 15 -4 26 -8 24 -5 -3 -8 0 -8 5
0 6 5 11 11 11 5 0 8 3 5 8 -2 4 2 18 10 32 13 24 13 24 14 -17 l0 -42 53 16
c56 16 68 23 51 30 -6 2 -20 10 -30 18 -18 13 -18 15 15 49 19 20 33 36 30 36
-2 0 -22 -7 -44 -15 -64 -23 -65 -22 -65 55 0 125 -55 225 -161 290 -48 29
-51 33 -46 64 6 38 -6 66 -19 45z m-209 -129 c-3 -5 1 -10 10 -10 9 0 13 -4
10 -10 -3 -5 -1 -37 6 -70 6 -33 9 -63 5 -67 -9 -10 -16 1 -20 33 -2 16 -7 41
-10 57 -3 15 -8 38 -11 52 -3 14 -1 25 5 25 6 0 8 -4 5 -10z m325 -118 c41
-62 55 -133 41 -204 -7 -30 -18 -64 -25 -74 -12 -16 -14 -12 -21 35 -4 29 -10
50 -13 47 -10 -11 -32 16 -32 39 0 13 7 36 15 51 8 16 15 41 15 55 0 28 -33
69 -55 69 -10 0 -15 11 -15 35 l0 36 31 -23 c16 -12 43 -42 59 -66z m-273 -24
c-3 -7 -5 -2 -5 12 0 14 2 19 5 13 2 -7 2 -19 0 -25z m10 -34 c-3 -3 -12 -4
-19 -1 -8 3 -5 6 6 6 11 1 17 -2 13 -5z m-205 -70 c8 -17 9 -28 2 -32 -6 -4
-16 -16 -22 -27 -10 -17 -11 -12 -12 33 0 56 13 68 32 26z m21 -132 c20 -17
23 -46 5 -40 -7 3 -22 20 -32 38 -20 34 -12 35 27 2z m-56 -98 c-3 -3 -12 -4
-19 -1 -8 3 -5 6 6 6 11 1 17 -2 13 -5z m570 0 c-3 -3 -12 -4 -19 -1 -8 3 -5
6 6 6 11 1 17 -2 13 -5z m0 -20 c-3 -3 -12 -4 -19 -1 -8 3 -5 6 6 6 11 1 17
-2 13 -5z"/>
<path d="M270 581 l-51 -48 18 -31 c22 -39 26 -39 44 -6 7 14 26 36 41 49 28
24 33 40 22 69 -9 25 -20 20 -74 -33z"/>
</g>
</svg>
